<?xml version="1.0" standalone="no"?><!DOCTYPE svg PUBLIC "-//W3C//DTD SVG 1.1//EN" "http://www.w3.org/Graphics/SVG/1.1/DTD/svg11.dtd"><svg t="1576154806696" class="icon" viewBox="0 0 1024 1024" version="1.1" xmlns="http://www.w3.org/2000/svg" p-id="8947" xmlns:xlink="http://www.w3.org/1999/xlink" width="200" height="200"><defs><style type="text/css"></style></defs><path d="M897.95188703 1011.28802105h-771.90377406c-27.48910101 0-49.70127639-22.21217537-49.70127639-49.70127638V290.80359217h95.35281916l680.35525014-11.4128857h95.35281917v682.1960382c0.12271919 27.48910101-22.08945617 49.70127639-49.45583802 49.70127638z" fill="#D33409" p-id="8948"></path><path d="M662.821898 488.38150572s-27.1209434 113.88341851-152.53996684 113.88341853c-125.41902338 0-177.8201222-117.93315212-177.82012216-117.93315216-99.89342959-18.16244173-155.85338522-50.92846841-226.41692578-92.16211993L76.34683658 374.74352563v-301.88923438c0-27.48910101 22.21217537-49.70127639 49.70127639-49.70127638h771.78105487c27.48910101 0 49.70127639 22.21217537 49.7012764 49.70127638v289.37187589l-22.08945618 14.11270809c-4.90876804 3.06798002-9.69481688 6.13596005-14.35814652 9.0812209-74.61327421 47.61504999-133.51849066 85.04440628-248.26094354 102.96140959z" fill="#B22B0B" p-id="8949"></path><path d="M662.821898 465.80117274s-27.1209434 113.88341851-152.53996684 113.8834185c-125.41902338 0-177.8201222-117.93315212-177.82012216-117.93315213-99.89342959-18.16244173-155.85338522-50.92846841-226.41692578-92.1621199L76.34683658 352.16319265v-301.88923439c0-27.48910101 22.21217537-49.70127639 49.70127639-49.70127638h771.78105487c27.48910101 0 49.70127639 22.21217537 49.7012764 49.70127638v289.3718759l-22.08945618 14.1127081c-4.90876804 3.06798002-9.69481688 6.13596005-14.35814652 9.08122088-74.61327421 47.49233075-133.51849066 84.92168707-248.26094354 102.9614096z" fill="#FF5D24" p-id="8950"></path><path d="M505.61860155 448.4977654m-235.12998905 0a235.12998908 235.12998908 0 1 0 470.2599781 0 235.12998908 235.12998908 0 1 0-470.2599781 0Z" fill="#B22B0B" p-id="8951"></path><path d="M505.86403995 663.99268229c-129.468757 0-234.76183147-105.29307443-234.76183145-234.76183143 0-129.468757 105.29307443-234.76183147 234.76183145-234.76183144 129.468757 0 234.76183147 105.29307443 234.76183145 234.76183144 0.12271919 129.34603782-105.17035522 234.76183147-234.76183145 234.76183143z m0 0" fill="#EFCE73" p-id="8952"></path><path d="M636.31455059 507.03482426v-46.63329636h-103.82044404v-55.83723643h116.33780254v-46.51057718H594.22186466l13.00823529-52.15566043h-47.98320757L546.36137628 357.80827589h-67.37284135l-14.48086568-52.15566039H416.27902325l14.4808657 52.15566039h-59.39609326v46.51057717h114.61973371v55.83723644h-102.10237522v46.63329636h102.10237522v95.35281915h46.51057715v-95.35281915h103.82044404z" fill="#efce73" p-id="8953"></path></svg>